<svg width="24" height="24" viewBox="0 0 24 24" fill="none" xmlns="http://www.w3.org/2000/svg">
<path d="M12 3C16.9706 3 21 7.02944 21 12C21 16.9706 16.9706 21 12 21C7.02944 21 3 16.9706 3 12C3 7.02944 7.02944 3 12 3Z" fill="#657B90"/>
<path d="M15 13V9M15 9H11M15 9L9 15M21 12C21 7.02944 16.9706 3 12 3C7.02944 3 3 7.02944 3 12C3 16.9706 7.02944 21 12 21C16.9706 21 21 16.9706 21 12Z" stroke="#657B90" stroke-width="2" stroke-linecap="round" stroke-linejoin="round"/>
<path d="M10.7507 8.99977L14.9934 8.99977M14.9934 8.99977L14.9934 13.2424M14.9934 8.99977L9 14.9927" stroke="white" stroke-width="2" stroke-linecap="round" stroke-linejoin="round"/>
</svg>
