<svg width="24" height="24" viewBox="0 0 24 24" fill="none" xmlns="http://www.w3.org/2000/svg">
<path d="M9 20V4M9 20H16.8031C17.921 20 18.48 20 18.9074 19.7822C19.2837 19.5905 19.5905 19.2837 19.7822 18.9074C20 18.48 20 17.921 20 16.8031V7.19691C20 6.07899 20 5.5192 19.7822 5.0918C19.5905 4.71547 19.2837 4.40973 18.9074 4.21799C18.4796 4 17.9203 4 16.8002 4H9M9 20H7.19692C6.07901 20 5.5192 20 5.0918 19.7822C4.71547 19.5905 4.40973 19.2837 4.21799 18.9074C4 18.4796 4 17.9203 4 16.8002V7.2002C4 6.08009 4 5.51962 4.21799 5.0918C4.40973 4.71547 4.71547 4.40973 5.0918 4.21799C5.51962 4 6.08009 4 7.2002 4H9" stroke="#657B90" stroke-width="2" stroke-linecap="round" stroke-linejoin="round"/>
<path d="M9 20L9 4H7.1998C6.0797 4 5.52043 4 5.09261 4.21799C4.71628 4.40973 4.40952 4.71547 4.21777 5.0918C4 5.5192 4 6.079 4 7.19691L4 16.8031C4 17.921 4 18.48 4.21777 18.9074C4.40952 19.2837 4.71628 19.5905 5.09261 19.7822C5.52001 20 6.079 20 7.19691 20H9Z" fill="#657B90" stroke="#657B90" stroke-width="2" stroke-linecap="round" stroke-linejoin="round"/>
</svg>
