<svg width="24" height="25" viewBox="0 0 24 25" fill="none" xmlns="http://www.w3.org/2000/svg">
<path d="M4.41406 15.0858L4.80357 14.6963C4.92924 14.5706 5 14.4002 5 14.2224V10.5C5 6.63401 8.13401 3.50001 12 3.5C15.866 3.49999 19 6.634 19 10.5V14.2224C19 14.4001 19.0706 14.5706 19.1963 14.6963L19.5858 15.0858C19.7048 15.2048 19.7651 15.2651 19.8126 15.3312C19.9024 15.4563 19.9619 15.6004 19.9868 15.7524C20 15.8329 20.0002 15.9172 20.0002 16.0859C20.0002 16.4715 20.0002 16.6643 19.9478 16.8198C19.848 17.1156 19.6155 17.348 19.3196 17.4478C19.1647 17.5 18.9725 17.5 18.59 17.5H15V18.5C15 20.1569 13.6569 21.5 12 21.5C10.3431 21.5 9 20.1569 9 18.5V17.5H5.40956C5.02701 17.5 4.83507 17.5 4.68018 17.4478C4.38431 17.348 4.15225 17.1156 4.05245 16.8197C4 16.6642 4 16.4715 4 16.086C4 15.9172 4 15.8329 4.0132 15.7524C4.03815 15.6004 4.09766 15.4564 4.1875 15.3312C4.23504 15.265 4.29476 15.2051 4.41406 15.0858Z" fill="#657B90"/>
<path d="M15 17.5V18.5C15 20.1569 13.6569 21.5 12 21.5C10.3431 21.5 9 20.1569 9 18.5V17.5M15 17.5H9M15 17.5H18.59C18.9725 17.5 19.1647 17.5 19.3196 17.4478C19.6155 17.348 19.848 17.1156 19.9478 16.8198C20.0002 16.6643 20.0002 16.4715 20.0002 16.0859C20.0002 15.9172 20 15.8329 19.9868 15.7524C19.9619 15.6004 19.9024 15.4563 19.8126 15.3312C19.7651 15.2651 19.7048 15.2048 19.5858 15.0858L19.1963 14.6963C19.0706 14.5706 19 14.4001 19 14.2224V10.5C19 6.634 15.866 3.49999 12 3.5C8.13401 3.50001 5 6.63401 5 10.5V14.2224C5 14.4002 4.92924 14.5706 4.80357 14.6963L4.41406 15.0858C4.29476 15.2051 4.23504 15.265 4.1875 15.3312C4.09766 15.4564 4.03815 15.6004 4.0132 15.7524C4 15.8329 4 15.9172 4 16.086C4 16.4715 4 16.6642 4.05245 16.8197C4.15225 17.1156 4.38431 17.348 4.68018 17.4478C4.83507 17.5 5.02701 17.5 5.40956 17.5H9M10 12.5L12 10.5M12 10.5L14 8.5M12 10.5L10 8.5M12 10.5L14 12.5" stroke="#657B90" stroke-width="2" stroke-linecap="round" stroke-linejoin="round"/>
<path d="M10 12.5L12 10.5M12 10.5L14 8.5M12 10.5L10 8.5M12 10.5L14 12.5" stroke="white" stroke-width="2" stroke-linecap="round" stroke-linejoin="round"/>
<path d="M15 18.5V17.5H9V18.5C9 20.1569 10.3431 21.5 12 21.5C13.6569 21.5 15 20.1569 15 18.5Z" fill="white" stroke="#657B90" stroke-width="2" stroke-linecap="round" stroke-linejoin="round"/>
</svg>
