<svg width="24" height="25" viewBox="0 0 24 25" fill="none" xmlns="http://www.w3.org/2000/svg">
<path d="M15 17.5V18.5C15 20.1569 13.6569 21.5 12 21.5C10.3431 21.5 9 20.1569 9 18.5V17.5001M15 17.5L9 17.5001M15 17.5H19C19.5523 17.5 20 17.0523 20 16.5V15.9141C20 15.6489 19.8945 15.3946 19.707 15.207L19.1963 14.6963C19.0706 14.5706 19 14.4 19 14.2222V10.5C19 10.3236 18.9936 10.1485 18.9805 9.9761M9 17.5001L5 17.5001C4.44772 17.5001 4 17.0521 4 16.4998V15.9141C4 15.6489 4.10544 15.3949 4.29297 15.2073L4.80371 14.6958C4.92939 14.5701 5 14.4002 5 14.2224V10.5C5 6.63401 8.134 3.5 12 3.5C12.7116 3.5 13.3984 3.60618 14.0454 3.80357M18.9805 9.9761C20.1868 9.2873 21 7.98861 21 6.5C21 4.29086 19.2091 2.5 17 2.5C15.8298 2.5 14.7769 3.00253 14.0454 3.80357M18.9805 9.9761C18.3966 10.3095 17.7205 10.5 17 10.5C14.7909 10.5 13 8.70914 13 6.5C13 5.4611 13.3961 4.5147 14.0454 3.80357M18.9805 9.9761C18.9805 9.97609 18.9805 9.9761 18.9805 9.9761ZM14.0454 3.80357C14.0459 3.80371 14.0464 3.80385 14.0468 3.804" stroke="#657B90" stroke-width="2" stroke-linecap="round" stroke-linejoin="round"/>
</svg>
