<svg width="24" height="25" viewBox="0 0 24 25" fill="none" xmlns="http://www.w3.org/2000/svg">
<path d="M9 17.5V18.5C9 20.1569 10.3431 21.5 12 21.5C13.6569 21.5 15 20.1569 15 18.5V17.5M9 17.5L15 17.5M9 17.5L5.00022 17.5002C4.48738 17.5002 4.06449 17.1141 4.00673 16.6168L4 16.4998V15.9141C4 15.6489 4.10544 15.3949 4.29297 15.2073L4.80371 14.6963C4.92939 14.5706 5 14.4003 5 14.2225V10.4999C5 8.65821 5.7112 6.98267 6.87393 5.73291M15 17.5L18.9999 17.5M5 3.5L21 19.5M18.9995 13.499L19.0004 10.5C19.0004 6.63402 15.8665 3.5 12.0005 3.5L11.7598 3.50406C10.9548 3.53125 10.1845 3.69404 9.4707 3.97081" stroke="#657B90" stroke-width="2" stroke-linecap="round" stroke-linejoin="round"/>
<path d="M9 17.5L15 17.5L18.9999 17.5L6.87393 5.73291C5.7112 6.98267 5 8.65821 5 10.4999V14.2225C5 14.4003 4.92939 14.5706 4.80371 14.6963L4.29297 15.2073C4.10544 15.3949 4 15.6489 4 15.9141V16.4998L4.00673 16.6168C4.06449 17.1141 4.48738 17.5002 5.00022 17.5002L9 17.5Z" fill="#657B90" stroke="#657B90" stroke-width="2" stroke-linecap="round" stroke-linejoin="round"/>
</svg>
