<svg width="24" height="24" viewBox="0 0 24 24" fill="none" xmlns="http://www.w3.org/2000/svg">
<path d="M7.2002 4H8H16H16.8002C17.9203 4 18.4796 4 18.9074 4.21799C19.2837 4.40973 19.5905 4.71547 19.7822 5.0918C20 5.5192 20 6.07899 20 7.19691V8V16.8036C20 17.9215 20 18.4805 19.7822 18.9079C19.5905 19.2842 19.2837 19.5905 18.9074 19.7822C18.48 20 17.921 20 16.8031 20H7.19691C6.07899 20 5.5192 20 5.0918 19.7822C4.71547 19.5905 4.40973 19.2842 4.21799 18.9079C4 18.4801 4 17.9203 4 16.8002V8V7.2002C4 6.08009 4 5.51962 4.21799 5.0918C4.40973 4.71547 4.71547 4.40973 5.0918 4.21799C5.51962 4 6.08009 4 7.2002 4Z" fill="#657B90"/>
<path d="M8 4H7.2002C6.08009 4 5.51962 4 5.0918 4.21799C4.71547 4.40973 4.40973 4.71547 4.21799 5.0918C4 5.51962 4 6.08009 4 7.2002V8M8 4H16M8 4V2M16 4H16.8002C17.9203 4 18.4796 4 18.9074 4.21799C19.2837 4.40973 19.5905 4.71547 19.7822 5.0918C20 5.5192 20 6.07899 20 7.19691V8M16 4V2M4 8V16.8002C4 17.9203 4 18.4801 4.21799 18.9079C4.40973 19.2842 4.71547 19.5905 5.0918 19.7822C5.5192 20 6.07899 20 7.19691 20H16.8031C17.921 20 18.48 20 18.9074 19.7822C19.2837 19.5905 19.5905 19.2842 19.7822 18.9079C20 18.4805 20 17.9215 20 16.8036V8M4 8H20M16 16H16.002L16.002 16.002L16 16.002V16ZM12 16H12.002L12.002 16.002L12 16.002V16ZM8 16H8.002L8.00195 16.002L8 16.002V16ZM16.002 12V12.002L16 12.002V12H16.002ZM12 12H12.002L12.002 12.002L12 12.002V12ZM8 12H8.002L8.00195 12.002L8 12.002V12Z" stroke="#657B90" stroke-width="2" stroke-linecap="round" stroke-linejoin="round"/>
<path d="M16.002 16H16V16.002L16.002 16.002L16.002 16Z" stroke="white" stroke-width="2" stroke-linecap="round" stroke-linejoin="round"/>
<path d="M12.002 16H12V16.002L12.002 16.002L12.002 16Z" stroke="white" stroke-width="2" stroke-linecap="round" stroke-linejoin="round"/>
<path d="M8.002 16H8V16.002L8.00195 16.002L8.002 16Z" stroke="white" stroke-width="2" stroke-linecap="round" stroke-linejoin="round"/>
<path d="M16.002 12.002V12H16V12.002L16.002 12.002Z" stroke="white" stroke-width="2" stroke-linecap="round" stroke-linejoin="round"/>
<path d="M12.002 12H12V12.002L12.002 12.002L12.002 12Z" stroke="white" stroke-width="2" stroke-linecap="round" stroke-linejoin="round"/>
<path d="M8.002 12H8V12.002L8.00195 12.002L8.002 12Z" stroke="white" stroke-width="2" stroke-linecap="round" stroke-linejoin="round"/>
<path d="M5 7C5 5.89543 5.89543 5 7 5H17C18.1046 5 19 5.89543 19 7C19 7.55228 18.5523 8 18 8H6C5.44772 8 5 7.55228 5 7Z" fill="white"/>
</svg>
