<svg width="24" height="25" viewBox="0 0 24 25" fill="none" xmlns="http://www.w3.org/2000/svg">
<path d="M12 14.5V11.5M12 11.5V8.5M12 11.5H9M12 11.5H15M7.12357 19.2012L5.59961 20.4203C4.76744 21.0861 4.35115 21.4191 4.00098 21.4195C3.69644 21.4198 3.40845 21.2813 3.21846 21.0433C3 20.7696 3 20.2369 3 19.1712V7.7002C3 6.58009 3 6.01962 3.21799 5.5918C3.40973 5.21547 3.71547 4.90973 4.0918 4.71799C4.51962 4.5 5.08009 4.5 6.2002 4.5H17.8002C18.9203 4.5 19.4801 4.5 19.9079 4.71799C20.2842 4.90973 20.5905 5.21547 20.7822 5.5918C21 6.0192 21 6.57899 21 7.69691V15.3036C21 16.4215 21 16.9805 20.7822 17.4079C20.5905 17.7842 20.2843 18.0905 19.908 18.2822C19.4806 18.5 18.9215 18.5 17.8036 18.5H9.12256C8.70652 18.5 8.49829 18.5 8.29932 18.5408C8.12279 18.5771 7.95216 18.6368 7.79168 18.7188C7.61149 18.8108 7.44964 18.9403 7.12722 19.1982L7.12357 19.2012Z" stroke="#657B90" stroke-width="2" stroke-linecap="round" stroke-linejoin="round"/>
</svg>
