<svg width="24" height="25" viewBox="0 0 24 25" fill="none" xmlns="http://www.w3.org/2000/svg">
<path d="M7.51025 20.3018C8.83174 21.0639 10.365 21.5 12.0001 21.5C16.9707 21.5 21 17.4706 21 12.5C21 7.52944 16.9706 3.5 12 3.5C7.02944 3.5 3 7.52944 3 12.5C3 14.1351 3.43604 15.6684 4.19819 16.9899L4.20114 16.995C4.27448 17.1221 4.31146 17.1863 4.32821 17.2469C4.34401 17.304 4.3494 17.3554 4.34535 17.4146C4.34106 17.4773 4.31936 17.5424 4.27651 17.671L4.27468 17.6758L3.50586 19.9823L3.50489 19.9853C3.34268 20.4719 3.26157 20.7152 3.31938 20.8774C3.36979 21.0187 3.4812 21.1303 3.62256 21.1807C3.7848 21.2386 4.02892 21.1572 4.51625 20.9947L4.51807 20.9939L6.82759 20.2241C6.9573 20.1808 7.02253 20.1591 7.08559 20.1548C7.14475 20.1507 7.19578 20.1561 7.25293 20.1719C7.31434 20.1888 7.3797 20.2265 7.51025 20.3018Z" fill="#657B90"/>
<path d="M12 15.5V12.5M12 12.5V9.5M12 12.5H9M12 12.5H15M12.0001 21.5C10.365 21.5 8.83174 21.0639 7.51025 20.3018C7.3797 20.2265 7.31434 20.1888 7.25293 20.1719C7.19578 20.1561 7.14475 20.1507 7.08559 20.1548C7.02253 20.1591 6.9573 20.1808 6.82759 20.2241L4.51807 20.9939L4.51625 20.9947C4.02892 21.1572 3.7848 21.2386 3.62256 21.1807C3.4812 21.1303 3.36979 21.0187 3.31938 20.8774C3.26157 20.7152 3.34268 20.4719 3.50489 19.9853L3.50586 19.9823L4.27468 17.6758L4.27651 17.671C4.31936 17.5424 4.34106 17.4773 4.34535 17.4146C4.3494 17.3554 4.34401 17.304 4.32821 17.2469C4.31146 17.1863 4.27448 17.1221 4.20114 16.995L4.19819 16.9899C3.43604 15.6684 3 14.1351 3 12.5C3 7.52944 7.02944 3.5 12 3.5C16.9706 3.5 21 7.52944 21 12.5C21 17.4706 16.9707 21.5 12.0001 21.5Z" stroke="#657B90" stroke-width="2" stroke-linecap="round" stroke-linejoin="round"/>
<path d="M12 15.5V12.5M12 12.5V9.5M12 12.5H9M12 12.5H15" stroke="white" stroke-width="2" stroke-linecap="round" stroke-linejoin="round"/>
</svg>
