<svg width="24" height="25" viewBox="0 0 24 25" fill="none" xmlns="http://www.w3.org/2000/svg">
<path d="M5.59961 20.4203L7.12357 19.2012L7.13478 19.1926C7.45249 18.9384 7.61281 18.8101 7.79168 18.7188C7.95216 18.6368 8.12328 18.5771 8.2998 18.5408C8.49877 18.5 8.70603 18.5 9.12207 18.5H17.8031C18.921 18.5 19.4806 18.5 19.908 18.2822C20.2843 18.0905 20.5905 17.7842 20.7822 17.4079C21 16.9805 21 16.4215 21 15.3036V7.69691C21 6.57899 21 6.0192 20.7822 5.5918C20.5905 5.21547 20.2837 4.90973 19.9074 4.71799C19.4796 4.5 18.9203 4.5 17.8002 4.5H6.2002C5.08009 4.5 4.51962 4.5 4.0918 4.71799C3.71547 4.90973 3.40973 5.21547 3.21799 5.5918C3 6.01962 3 6.58009 3 7.7002V19.1712C3 20.2369 3 20.7696 3.21846 21.0433C3.40845 21.2813 3.69644 21.4198 4.00098 21.4195C4.35115 21.4191 4.76744 21.0861 5.59961 20.4203Z" fill="#657B90"/>
<path d="M10 13.5L12 11.5M12 11.5L14 9.5M12 11.5L10 9.5M12 11.5L14 13.5M7.12357 19.2012L5.59961 20.4203C4.76744 21.0861 4.35115 21.4191 4.00098 21.4195C3.69644 21.4198 3.40845 21.2813 3.21846 21.0433C3 20.7696 3 20.2369 3 19.1712V7.7002C3 6.58009 3 6.01962 3.21799 5.5918C3.40973 5.21547 3.71547 4.90973 4.0918 4.71799C4.51962 4.5 5.08009 4.5 6.2002 4.5H17.8002C18.9203 4.5 19.4796 4.5 19.9074 4.71799C20.2837 4.90973 20.5905 5.21547 20.7822 5.5918C21 6.0192 21 6.57899 21 7.69691V15.3036C21 16.4215 21 16.9805 20.7822 17.4079C20.5905 17.7842 20.2843 18.0905 19.908 18.2822C19.4806 18.5 18.921 18.5 17.8031 18.5H9.12207C8.70603 18.5 8.49877 18.5 8.2998 18.5408C8.12328 18.5771 7.95216 18.6368 7.79168 18.7188C7.61281 18.8101 7.45249 18.9384 7.13478 19.1926L7.12357 19.2012Z" stroke="#657B90" stroke-width="2" stroke-linecap="round" stroke-linejoin="round"/>
<path d="M10 13.5L12 11.5M12 11.5L14 9.5M12 11.5L10 9.5M12 11.5L14 13.5" stroke="white" stroke-width="2" stroke-linecap="round" stroke-linejoin="round"/>
</svg>
