<svg width="24" height="25" viewBox="0 0 24 25" fill="none" xmlns="http://www.w3.org/2000/svg">
<path d="M7.50977 20.3018C8.83126 21.0639 10.3645 21.5 11.9996 21.5C16.9702 21.5 21 17.4706 21 12.5C21 7.52944 16.9706 3.5 12 3.5C7.02944 3.5 3 7.52944 3 12.5C3 14.1351 3.43604 15.6684 4.19819 16.9899L4.20114 16.995C4.27448 17.1221 4.31146 17.1863 4.32821 17.2469C4.34401 17.304 4.34842 17.3554 4.34437 17.4146C4.34003 17.4781 4.3186 17.544 4.27468 17.6758L3.50586 19.9823L3.50489 19.9853C3.34268 20.4719 3.26157 20.7152 3.31938 20.8774C3.36979 21.0187 3.48169 21.1303 3.62305 21.1807C3.78482 21.2384 4.02705 21.1577 4.51155 20.9962L4.51758 20.9939L6.82405 20.2251C6.95537 20.1813 7.02214 20.1591 7.08559 20.1548C7.14475 20.1507 7.19578 20.1561 7.25293 20.1719C7.31368 20.1887 7.37783 20.2257 7.50563 20.2994L7.50977 20.3018Z" fill="#657B90"/>
<path d="M9 12.5H15M11.9996 21.5C10.3645 21.5 8.83126 21.0639 7.50977 20.3018L7.50563 20.2994C7.37783 20.2257 7.31368 20.1887 7.25293 20.1719C7.19578 20.1561 7.14475 20.1507 7.08559 20.1548C7.02214 20.1591 6.95537 20.1813 6.82405 20.2251L4.51758 20.9939L4.51155 20.9962C4.02705 21.1577 3.78482 21.2384 3.62305 21.1807C3.48169 21.1303 3.36979 21.0187 3.31938 20.8774C3.26157 20.7152 3.34268 20.4719 3.50489 19.9853L3.50586 19.9823L4.27468 17.6758C4.3186 17.544 4.34003 17.4781 4.34437 17.4146C4.34842 17.3554 4.34401 17.304 4.32821 17.2469C4.31146 17.1863 4.27448 17.1221 4.20114 16.995L4.19819 16.9899C3.43604 15.6684 3 14.1351 3 12.5C3 7.52944 7.02944 3.5 12 3.5C16.9706 3.5 21 7.52944 21 12.5C21 17.4706 16.9702 21.5 11.9996 21.5Z" stroke="#657B90" stroke-width="2" stroke-linecap="round" stroke-linejoin="round"/>
<path d="M9 12.5H15" stroke="white" stroke-width="2" stroke-linecap="round" stroke-linejoin="round"/>
</svg>
