<svg width="24" height="24" viewBox="0 0 24 24" fill="none" xmlns="http://www.w3.org/2000/svg">
<path d="M3 12C3 16.9706 7.02944 21 12 21C16.9706 21 21 16.9706 21 12C21 7.02944 16.9706 3 12 3C7.02944 3 3 7.02944 3 12Z" fill="#657B90"/>
<path d="M9.14648 9.07361C9.31728 8.54732 9.63015 8.07896 10.0508 7.71948C10.4714 7.36001 10.9838 7.12378 11.5303 7.03708C12.0768 6.95038 12.6362 7.0164 13.1475 7.22803C13.6587 7.43966 14.1014 7.78875 14.4268 8.23633C14.7521 8.68391 14.9469 9.21256 14.9904 9.76416C15.0339 10.3158 14.9238 10.8688 14.6727 11.3618C14.4215 11.8548 14.0394 12.2685 13.5676 12.5576C13.0958 12.8467 12.5533 12.9998 12 12.9998V14.0002M12 21C7.02944 21 3 16.9706 3 12C3 7.02944 7.02944 3 12 3C16.9706 3 21 7.02944 21 12C21 16.9706 16.9706 21 12 21ZM12.0498 17V17.1L11.9502 17.1002V17H12.0498Z" stroke="#657B90" stroke-width="2" stroke-linecap="round" stroke-linejoin="round"/>
<path d="M9 9.07362C9.178 8.54733 9.50406 8.07897 9.94243 7.71949C10.3808 7.36001 10.9148 7.12378 11.4843 7.03708C12.0538 6.95038 12.6369 7.0164 13.1697 7.22803C13.7025 7.43966 14.1639 7.78875 14.503 8.23633C14.842 8.68391 15.045 9.21256 15.0903 9.76416C15.1357 10.3158 15.021 10.8688 14.7593 11.3618C14.4975 11.8548 14.0992 12.2685 13.6076 12.5576C13.1159 12.8467 12.5505 12.9998 11.9739 12.9998V13.9997M12.0258 17V17.1L11.9219 17.0997V17H12.0258Z" stroke="white" stroke-width="2" stroke-linecap="round" stroke-linejoin="round"/>
</svg>
