<svg width="24" height="24" viewBox="0 0 24 24" fill="none" xmlns="http://www.w3.org/2000/svg">
<path d="M6.68701 15H17.3156M6.51562 13H17.4871M7.74414 7H16.2581M7.74414 7C7.13926 7 6.83678 7 6.61377 7.12093C6.41784 7.22718 6.26303 7.3963 6.1739 7.60059C6.07249 7.83303 6.09828 8.13407 6.1499 8.73633L6.95019 18.073C7.03867 19.1053 7.08301 19.6225 7.31246 20.0132C7.51455 20.3572 7.81524 20.6327 8.17529 20.8047C8.58416 21 9.10224 21 10.1387 21H13.8638C14.9002 21 15.4184 21 15.8273 20.8047C16.1873 20.6327 16.4878 20.3572 16.6899 20.0132C16.9194 19.6225 16.9637 19.1056 17.0522 18.073L17.8527 8.73471C17.9042 8.13312 17.93 7.8329 17.8286 7.60059C17.7395 7.3963 17.5847 7.22718 17.3888 7.12093C17.1658 7 16.863 7 16.2581 7M7.74414 7H6.75087C5.85129 7 5.40121 7 5.13965 6.81152C4.90876 6.64515 4.75982 6.38816 4.72992 6.10515C4.69602 5.78431 4.91969 5.3929 5.36665 4.6107L5.36719 4.60977C5.70136 4.02496 5.86845 3.73255 6.10295 3.51953C6.31259 3.32909 6.56023 3.18544 6.82959 3.09791C7.13089 3 7.46756 3 8.14111 3H15.8613C16.5349 3 16.8716 3 17.1729 3.09791C17.4423 3.18544 17.6898 3.32909 17.8994 3.51953C18.1339 3.73255 18.301 4.02496 18.6352 4.60977C19.0823 5.39224 19.3063 5.78425 19.2724 6.10515C19.2425 6.38816 19.0935 6.64515 18.8626 6.81152C18.6011 7 18.1507 7 17.2511 7H16.2581" stroke="#657B90" stroke-width="2" stroke-linecap="round" stroke-linejoin="round"/>
<path d="M10.0342 21H13.7593C14.7957 21 15.3139 21 15.7228 20.8047C16.0828 20.6327 16.3833 20.3572 16.5854 20.0132C16.8149 19.6225 16.8592 19.1056 16.9477 18.073L17.7482 8.73471C17.7997 8.13312 17.8255 7.8329 17.7241 7.60059C17.635 7.3963 17.4802 7.22718 17.2843 7.12093C17.0613 7 16.7585 7 16.1536 7H7.63963C7.03475 7 6.73227 7 6.50926 7.12093C6.31333 7.22718 6.15851 7.3963 6.06939 7.60059C5.96798 7.83303 5.99377 8.13407 6.04539 8.73633L6.84567 18.073C6.93416 19.1053 6.97849 19.6225 7.20795 20.0132C7.41004 20.3572 7.71073 20.6327 8.07078 20.8047C8.47965 21 8.99773 21 10.0342 21Z" fill="#657B90"/>
<path d="M6.5825 15H17.2111M6.41111 13H17.3825M7.63963 7H16.1536M7.63963 7C7.03475 7 6.73227 7 6.50926 7.12093C6.31333 7.22718 6.15851 7.3963 6.06939 7.60059C5.96798 7.83303 5.99377 8.13407 6.04539 8.73633L6.84567 18.073C6.93416 19.1053 6.97849 19.6225 7.20795 20.0132C7.41004 20.3572 7.71073 20.6327 8.07078 20.8047C8.47965 21 8.99773 21 10.0342 21H13.7593C14.7957 21 15.3139 21 15.7228 20.8047C16.0828 20.6327 16.3833 20.3572 16.5854 20.0132C16.8149 19.6225 16.8592 19.1056 16.9477 18.073L17.7482 8.73471C17.7997 8.13312 17.8255 7.8329 17.7241 7.60059C17.635 7.3963 17.4802 7.22718 17.2843 7.12093C17.0613 7 16.7585 7 16.1536 7M7.63963 7H6.64636M16.1536 7H17.1466" stroke="#657B90" stroke-width="2" stroke-linecap="round" stroke-linejoin="round"/>
</svg>
