<svg width="24" height="24" viewBox="0 0 24 24" fill="none" xmlns="http://www.w3.org/2000/svg">
<path d="M4 16.8V8L5.36518 5.61089C5.7002 5.0246 5.86768 4.73151 6.10325 4.51807C6.31184 4.32907 6.55859 4.18605 6.82617 4.09871C7.12861 4 7.46623 4 8.14258 4H15.8571C16.5334 4 16.8723 4 17.1747 4.09871C17.4423 4.18605 17.6879 4.32907 17.8965 4.51807C18.1322 4.73168 18.3002 5.02507 18.6357 5.6123L20 8V16.8031C20 17.921 20 18.4802 19.7822 18.9076C19.5905 19.2839 19.2837 19.5905 18.9074 19.7822C18.48 20 17.921 20 16.8031 20H7.19691C6.07899 20 5.5192 20 5.0918 19.7822C4.71547 19.5905 4.40973 19.2839 4.21799 18.9076C4 18.4798 4 17.9201 4 16.8Z" fill="#657B90"/>
<path d="M4 8V16.8C4 17.9201 4 18.4798 4.21799 18.9076C4.40973 19.2839 4.71547 19.5905 5.0918 19.7822C5.5192 20 6.07899 20 7.19691 20H16.8031C17.921 20 18.48 20 18.9074 19.7822C19.2837 19.5905 19.5905 19.2839 19.7822 18.9076C20 18.4802 20 17.921 20 16.8031V8M4 8H20M4 8L5.36518 5.61089C5.7002 5.0246 5.86768 4.73151 6.10325 4.51807C6.31184 4.32907 6.55859 4.18605 6.82617 4.09871C7.12861 4 7.46623 4 8.14258 4H15.8571C16.5334 4 16.8723 4 17.1747 4.09871C17.4423 4.18605 17.6879 4.32907 17.8965 4.51807C18.1322 4.73168 18.3002 5.02507 18.6357 5.6123L20 8M12 11V17M12 17L15 15M12 17L9 15" stroke="#657B90" stroke-width="2" stroke-linecap="round" stroke-linejoin="round"/>
<path d="M12 11V17M12 17L15 15M12 17L9 15" stroke="white" stroke-width="2" stroke-linecap="round" stroke-linejoin="round"/>
<path d="M17.2769 8.5H6.72316C5.95534 8.5 5.47398 7.67053 5.85491 7.00387L6.19453 6.40953C6.48768 5.89652 6.63422 5.64007 6.84034 5.45331C7.02286 5.28794 7.23876 5.1628 7.4729 5.08637C7.73753 5 8.03295 5 8.62476 5H15.3749C15.9668 5 16.2633 5 16.5279 5.08637C16.762 5.1628 16.9769 5.28794 17.1594 5.45331C17.3657 5.64022 17.5127 5.89694 17.8063 6.41077L18.1452 7.0039C18.5261 7.67056 18.0447 8.5 17.2769 8.5Z" fill="white"/>
</svg>
