<svg width="24" height="24" viewBox="0 0 24 24" fill="none" xmlns="http://www.w3.org/2000/svg">
<path d="M14.9375 3.9375L18.063 7.06298C18.4089 7.40889 18.5809 7.58136 18.7046 7.78319C18.8142 7.96214 18.8953 8.15726 18.9443 8.36133C18.9857 8.53376 18.9963 8.71451 18.9991 9C19 9.09561 19 9.20296 19 9.32568V17.8036C19 18.9215 19 19.4805 18.7822 19.9079C18.5905 20.2842 18.2837 20.5905 17.9074 20.7822C17.48 21 16.921 21 15.8031 21L8.19694 21C7.079 21 6.51921 21 6.0918 20.7822C5.71547 20.5905 5.40973 20.2842 5.21799 19.9079C5 19.4801 5 18.9203 5 17.8002V6.2002C5 5.08009 5 4.51962 5.21799 4.0918C5.40973 3.71547 5.71547 3.40973 6.0918 3.21799C6.51962 3 7.08009 3 8.2002 3H12.6747C12.7973 3 12.9045 3 13 3.00087C13.2856 3.00347 13.4663 3.01385 13.6388 3.05526C13.8429 3.10425 14.0379 3.18526 14.2168 3.29492C14.4186 3.41857 14.5918 3.59182 14.9375 3.9375Z" fill="#657B90"/>
<path d="M13 3.00087C12.9045 3 12.7973 3 12.6747 3H8.2002C7.08009 3 6.51962 3 6.0918 3.21799C5.71547 3.40973 5.40973 3.71547 5.21799 4.0918C5 4.51962 5 5.08009 5 6.2002V17.8002C5 18.9203 5 19.4801 5.21799 19.9079C5.40973 20.2842 5.71547 20.5905 6.0918 20.7822C6.51921 21 7.079 21 8.19694 21L15.8031 21C16.921 21 17.48 21 17.9074 20.7822C18.2837 20.5905 18.5905 20.2842 18.7822 19.9079C19 19.4805 19 18.9215 19 17.8036V9.32568C19 9.20296 19 9.09561 18.9991 9M13 3.00087C13.2856 3.00347 13.4663 3.01385 13.6388 3.05526C13.8429 3.10425 14.0379 3.18526 14.2168 3.29492C14.4186 3.41857 14.5918 3.59182 14.9375 3.9375L18.063 7.06298C18.4089 7.40889 18.5809 7.58136 18.7046 7.78319C18.8142 7.96214 18.8953 8.15726 18.9443 8.36133C18.9857 8.53376 18.9963 8.71451 18.9991 9M13 3.00087V5.8C13 6.9201 13 7.47977 13.218 7.90759C13.4097 8.28392 13.7155 8.59048 14.0918 8.78223C14.5192 9 15.079 9 16.1969 9H18.9991M18.9991 9H19.0002" stroke="#657B90" stroke-width="2" stroke-linecap="round" stroke-linejoin="round"/>
<path d="M14.9375 3.93663L18.063 7.06211C18.4089 7.40802 18.5809 7.58049 18.7046 7.78232C18.8142 7.96127 18.8953 8.15639 18.9443 8.36046C18.9857 8.53289 18.9963 8.71364 18.9991 8.99913H16.1969C15.079 8.99913 14.5192 8.99913 14.0918 8.78136C13.7155 8.58961 13.4097 8.28305 13.218 7.90672C13 7.4789 13 6.91924 13 5.79913V3C13.2856 3.0026 13.4663 3.01298 13.6388 3.05439C13.8429 3.10338 14.0379 3.1844 14.2168 3.29405C14.4186 3.4177 14.5918 3.59095 14.9375 3.93663Z" fill="white"/>
<path d="M18.9991 8.99913C18.9963 8.71364 18.9857 8.53289 18.9443 8.36046C18.8953 8.15639 18.8142 7.96127 18.7046 7.78232C18.5809 7.58049 18.4089 7.40802 18.063 7.06211L14.9375 3.93663C14.5918 3.59095 14.4186 3.4177 14.2168 3.29405C14.0379 3.1844 13.8429 3.10338 13.6388 3.05439C13.4663 3.01298 13.2856 3.0026 13 3V5.79913C13 6.91924 13 7.4789 13.218 7.90672C13.4097 8.28305 13.7155 8.58961 14.0918 8.78136C14.5192 8.99913 15.079 8.99913 16.1969 8.99913H18.9991ZM18.9991 8.99913H19.0002" stroke="#657B90" stroke-width="2" stroke-linecap="round" stroke-linejoin="round"/>
</svg>
