<svg width="24" height="24" viewBox="0 0 24 24" fill="none" xmlns="http://www.w3.org/2000/svg">
<path d="M3.00005 17.0001C3 16.9355 3 16.8689 3 16.8002V7.2002C3 6.08009 3 5.51962 3.21799 5.0918C3.40973 4.71547 3.71547 4.40973 4.0918 4.21799C4.51962 4 5.08009 4 6.2002 4H17.8002C18.9203 4 19.4801 4 19.9079 4.21799C20.2842 4.40973 20.5905 4.71547 20.7822 5.0918C21 5.5192 21 6.07899 21 7.19691V16.8031C21 17.2881 21 17.6679 20.9822 17.9774M3.00005 17.0001C3.00082 17.9884 3.01337 18.5058 3.21799 18.9074C3.40973 19.2837 3.71547 19.5905 4.0918 19.7822C4.5192 20 5.07899 20 6.19691 20H17.8036C18.9215 20 19.4805 20 19.9079 19.7822C20.2842 19.5905 20.5905 19.2837 20.7822 18.9074C20.9055 18.6654 20.959 18.3813 20.9822 17.9774M3.00005 17.0001L7.76798 11.4375L7.76939 11.436C8.19227 10.9426 8.40406 10.6955 8.65527 10.6064C8.87594 10.5282 9.11686 10.53 9.33643 10.6113C9.58664 10.704 9.79506 10.9539 10.2119 11.4541L12.8831 14.6595C13.269 15.1226 13.463 15.3554 13.6986 15.4489C13.9065 15.5313 14.1357 15.5406 14.3501 15.4773C14.5942 15.4053 14.8091 15.1904 15.2388 14.7607L15.7358 14.2637C16.1733 13.8262 16.3921 13.6076 16.6397 13.5361C16.8571 13.4734 17.0896 13.4869 17.2988 13.5732C17.537 13.6716 17.7302 13.9124 18.1167 14.3955L20.9822 17.9774M20.9822 17.9774L21 17.9996M15 10C14.4477 10 14 9.55228 14 9C14 8.44772 14.4477 8 15 8C15.5523 8 16 8.44772 16 9C16 9.55228 15.5523 10 15 10Z" stroke="#657B90" stroke-width="2" stroke-linecap="round" stroke-linejoin="round"/>
<path d="M4.0918 19.782C4.5192 19.9998 5.07899 19.9998 6.19691 19.9998H17.8036C18.9215 19.9998 19.4805 19.9998 19.9079 19.782C20.2842 19.5903 20.5905 19.2835 20.7822 18.9072C20.9055 18.6652 20.959 18.3811 20.9822 17.9772L18.1167 14.3953C17.7302 13.9122 17.537 13.6714 17.2988 13.573C17.0896 13.4866 16.8571 13.4732 16.6397 13.5359C16.3921 13.6074 16.1733 13.826 15.7358 14.2635L15.2388 14.7605C14.8091 15.1902 14.5942 15.4051 14.3501 15.4771C14.1357 15.5404 13.9065 15.5311 13.6986 15.4487C13.463 15.3552 13.269 15.1223 12.8831 14.6593L10.2119 11.4539C9.79506 10.9537 9.58664 10.7038 9.33643 10.6111C9.11686 10.5298 8.87594 10.528 8.65527 10.6062C8.40406 10.6953 8.19227 10.9424 7.76939 11.4357L7.76798 11.4373L3.00005 16.9999C3.00082 17.9882 3.01337 18.5056 3.21799 18.9072C3.40973 19.2835 3.71547 19.5903 4.0918 19.782Z" fill="#657B90"/>
<path d="M3 16.8C3 16.8687 3 16.9353 3.00005 16.9999M3.00005 16.9999C3.00082 17.9882 3.01337 18.5056 3.21799 18.9072C3.40973 19.2835 3.71547 19.5903 4.0918 19.782C4.5192 19.9998 5.07899 19.9998 6.19691 19.9998H17.8036C18.9215 19.9998 19.4805 19.9998 19.9079 19.782C20.2842 19.5903 20.5905 19.2835 20.7822 18.9072C20.9055 18.6652 20.959 18.3811 20.9822 17.9772M3.00005 16.9999L7.76798 11.4373L7.76939 11.4357C8.19227 10.9424 8.40406 10.6953 8.65527 10.6062C8.87594 10.528 9.11686 10.5298 9.33643 10.6111C9.58664 10.7038 9.79506 10.9537 10.2119 11.4539L12.8831 14.6593C13.269 15.1223 13.463 15.3552 13.6986 15.4487C13.9065 15.5311 14.1357 15.5404 14.3501 15.4771C14.5942 15.4051 14.8091 15.1902 15.2388 14.7605L15.7358 14.2635C16.1733 13.826 16.3921 13.6074 16.6397 13.5359C16.8571 13.4732 17.0896 13.4866 17.2988 13.573C17.537 13.6714 17.7302 13.9122 18.1167 14.3953L20.9822 17.9772M20.9822 17.9772L21 17.9994" stroke="#657B90" stroke-width="2" stroke-linecap="round" stroke-linejoin="round"/>
</svg>
