<svg width="24" height="25" viewBox="0 0 24 25" fill="none" xmlns="http://www.w3.org/2000/svg">
<path d="M3 8.7002V16.3002C3 17.4203 3 17.9801 3.21799 18.4079C3.40973 18.7842 3.71547 19.0905 4.0918 19.2822C4.5192 19.5 5.07899 19.5 6.19691 19.5H17.8031C18.921 19.5 19.48 19.5 19.9074 19.2822C20.2837 19.0905 20.5905 18.7842 20.7822 18.4079C21 17.9805 21 17.4215 21 16.3036V8.69691C21 7.57899 21 7.0192 20.7822 6.5918C20.5905 6.21547 20.2837 5.90973 19.9074 5.71799C19.4796 5.5 18.9203 5.5 17.8002 5.5H6.2002C5.08009 5.5 4.51962 5.5 4.0918 5.71799C3.71547 5.90973 3.40973 6.21547 3.21799 6.5918C3 7.01962 3 7.58009 3 8.7002Z" fill="white"/>
<path d="M4.5 7L10.1076 11.1123L10.1097 11.114C10.7878 11.6113 11.1271 11.8601 11.4988 11.9562C11.8272 12.0412 12.1725 12.0412 12.501 11.9562C12.8729 11.86 13.2132 11.6105 13.8926 11.1123L19.5002 7M3 16.3002V8.7002C3 7.58009 3 7.01962 3.21799 6.5918C3.40973 6.21547 3.71547 5.90973 4.0918 5.71799C4.51962 5.5 5.08009 5.5 6.2002 5.5H17.8002C18.9203 5.5 19.4796 5.5 19.9074 5.71799C20.2837 5.90973 20.5905 6.21547 20.7822 6.5918C21 7.0192 21 7.57899 21 8.69691V16.3036C21 17.4215 21 17.9805 20.7822 18.4079C20.5905 18.7842 20.2837 19.0905 19.9074 19.2822C19.48 19.5 18.921 19.5 17.8031 19.5H6.19691C5.07899 19.5 4.5192 19.5 4.0918 19.2822C3.71547 19.0905 3.40973 18.7842 3.21799 18.4079C3 17.9801 3 17.4203 3 16.3002Z" stroke="#657B90" stroke-width="2" stroke-linecap="round" stroke-linejoin="round"/>
<path d="M3 8.96005V16.0253C3 17.0666 3 17.587 3.21799 17.9847C3.40973 18.3346 3.71547 18.6193 4.0918 18.7975C4.5192 19 5.07899 19 6.19691 19H17.8031C18.921 19 19.48 19 19.9074 18.7975C20.2837 18.6193 20.5905 18.3346 20.7822 17.9847C21 17.5874 21 17.0677 21 16.0285V8.957C21 7.91774 21 7.39733 20.7822 7L19.5002 7.37948L13.8926 11.2024L13.8926 11.2024C13.2132 11.6656 12.8729 11.8976 12.501 11.987C12.1725 12.066 11.8272 12.066 11.4988 11.987C11.1271 11.8976 10.7879 11.6663 10.1097 11.204L10.1097 11.204L10.1076 11.2024L4.5 7.37948L3.21799 7C3 7.39772 3 7.91876 3 8.96005Z" fill="#657B90" stroke="#657B90" stroke-width="2" stroke-linecap="round" stroke-linejoin="round"/>
</svg>
