<svg width="24" height="25" viewBox="0 0 24 25" fill="none" xmlns="http://www.w3.org/2000/svg">
<path d="M4.5 10.9999L10.1076 15.1122L10.1097 15.1139C10.7878 15.6112 11.1271 15.86 11.4988 15.9561C11.8272 16.0411 12.1725 16.0411 12.501 15.9561C12.8729 15.8599 13.2132 15.6104 13.8926 15.1122L19.5002 10.9999M19.8002 9.53944L14.2012 5.05657C13.506 4.49995 13.1581 4.22174 12.7715 4.11126C12.4304 4.01378 12.0692 4.00861 11.7255 4.09661C11.336 4.19634 10.9809 4.46473 10.2705 5.00188L4.26953 9.53967C3.8038 9.89184 3.57123 10.068 3.40332 10.2906C3.2546 10.4877 3.14377 10.7107 3.07624 10.9482C3 11.2163 3 11.5083 3 12.0922V18.3001C3 19.4202 3 19.9805 3.21799 20.4083C3.40973 20.7847 3.71547 21.0904 4.0918 21.2822C4.5192 21.4999 5.07899 21.4999 6.19691 21.4999H17.8031C18.921 21.4999 19.48 21.4999 19.9074 21.2822C20.2837 21.0904 20.5905 20.7844 20.7822 20.4081C21 19.9807 21 19.4214 21 18.3035V12.0265C21 11.4693 21 11.189 20.9287 10.9301C20.8651 10.6992 20.7595 10.4816 20.619 10.2877C20.4604 10.0688 20.2409 9.89227 19.8002 9.53944Z" stroke="#657B90" stroke-width="2" stroke-linecap="round" stroke-linejoin="round"/>
</svg>
