<svg width="24" height="25" viewBox="0 0 24 25" fill="none" xmlns="http://www.w3.org/2000/svg">
<path d="M4.5 7L10.1076 11.1123L10.1097 11.114C10.7878 11.6113 11.1271 11.8601 11.4988 11.9562C11.8272 12.0412 12.1725 12.0412 12.501 11.9562C12.8729 11.86 13.2132 11.6105 13.8926 11.1123L19.5002 7M3 16.3002V8.7002C3 7.58009 3 7.01962 3.21799 6.5918C3.40973 6.21547 3.71547 5.90973 4.0918 5.71799C4.51962 5.5 5.08009 5.5 6.2002 5.5H17.8002C18.9203 5.5 19.4796 5.5 19.9074 5.71799C20.2837 5.90973 20.5905 6.21547 20.7822 6.5918C21 7.0192 21 7.57899 21 8.69691V16.3036C21 17.4215 21 17.9805 20.7822 18.4079C20.5905 18.7842 20.2837 19.0905 19.9074 19.2822C19.48 19.5 18.921 19.5 17.8031 19.5H6.19691C5.07899 19.5 4.5192 19.5 4.0918 19.2822C3.71547 19.0905 3.40973 18.7842 3.21799 18.4079C3 17.9801 3 17.4203 3 16.3002Z" stroke="#657B90" stroke-width="2" stroke-linecap="round" stroke-linejoin="round"/>
</svg>
