<svg width="24" height="24" viewBox="0 0 24 24" fill="none" xmlns="http://www.w3.org/2000/svg">
<path d="M4 8.2002V13.8002C4 14.9203 4 15.4796 4.21799 15.9074C4.40973 16.2837 4.71547 16.5905 5.0918 16.7822C5.5192 17 6.07899 17 7.19691 17H16.8031C17.921 17 18.48 17 18.9074 16.7822C19.2837 16.5905 19.5905 16.2837 19.7822 15.9074C20 15.48 20 14.921 20 13.8031V8.19691C20 7.07899 20 6.5192 19.7822 6.0918C19.5905 5.71547 19.2837 5.40973 18.9074 5.21799C18.4796 5 17.9203 5 16.8002 5H7.2002C6.08009 5 5.51962 5 5.0918 5.21799C4.71547 5.40973 4.40973 5.71547 4.21799 6.0918C4 6.51962 4 7.08009 4 8.2002Z" fill="#657B90"/>
<path d="M15 20H9M4 13.8002V8.2002C4 7.08009 4 6.51962 4.21799 6.0918C4.40973 5.71547 4.71547 5.40973 5.0918 5.21799C5.51962 5 6.08009 5 7.2002 5H16.8002C17.9203 5 18.4796 5 18.9074 5.21799C19.2837 5.40973 19.5905 5.71547 19.7822 6.0918C20 6.5192 20 7.07899 20 8.19691V13.8031C20 14.921 20 15.48 19.7822 15.9074C19.5905 16.2837 19.2837 16.5905 18.9074 16.7822C18.48 17 17.921 17 16.8031 17H7.19691C6.07899 17 5.5192 17 5.0918 16.7822C4.71547 16.5905 4.40973 16.2837 4.21799 15.9074C4 15.4796 4 14.9203 4 13.8002ZM14.5 11L10 8V14L14.5 11Z" stroke="#657B90" stroke-width="2" stroke-linecap="round" stroke-linejoin="round"/>
<path d="M10 8L14.5 11L10 14V8Z" fill="white" stroke="white" stroke-width="2" stroke-linecap="round" stroke-linejoin="round"/>
</svg>
