<svg width="24" height="25" viewBox="0 0 24 25" fill="none" xmlns="http://www.w3.org/2000/svg">
<path d="M10.3078 14.1923L15.1539 9.34619M20.1113 6.38867L16.0207 19.6833C15.6541 20.8747 15.4706 21.4707 15.1544 21.6683C14.8802 21.8396 14.5406 21.8683 14.2419 21.7443C13.8975 21.6014 13.618 21.0433 13.0603 19.928L10.4694 14.7461C10.3809 14.5691 10.3366 14.481 10.2775 14.4043C10.225 14.3363 10.1645 14.2749 10.0965 14.2225C10.0215 14.1647 9.93486 14.1214 9.76577 14.0369L4.57192 11.4399C3.45662 10.8823 2.89892 10.6032 2.75601 10.2588C2.63207 9.9601 2.66033 9.62023 2.83169 9.34597C3.02928 9.02974 3.62523 8.84603 4.81704 8.47932L18.1116 4.38867C19.0486 4.10038 19.5173 3.95635 19.8337 4.07253C20.1094 4.17373 20.3267 4.39084 20.4279 4.66651C20.544 4.98283 20.3999 5.45126 20.1119 6.38729L20.1113 6.38867Z" stroke="#657B90" stroke-width="2" stroke-linecap="round" stroke-linejoin="round"/>
<path d="M19.7845 4.35633L10.6281 14.1599C10.5756 14.0919 10.4848 14.2425 10.4168 14.19C10.3418 14.1323 10.2552 14.089 10.0861 14.0044L4.89224 11.4075C3.77693 10.8499 3.21923 10.5708 3.07632 10.2264C2.95238 9.92766 2.98064 9.58779 3.152 9.31353C3.34959 8.9973 3.94555 8.81359 5.13735 8.44688L18.4319 4.35623C19.3689 4.06794 19.468 4.24014 19.7845 4.35633Z" fill="#657B90" stroke="#657B90" stroke-width="2" stroke-linecap="round" stroke-linejoin="round"/>
</svg>
