<svg width="24" height="25" viewBox="0 0 24 25" fill="none" xmlns="http://www.w3.org/2000/svg">
<path d="M9.50246 4.75722C9.19873 3.9979 8.46332 3.5 7.64551 3.5H4.89474C3.8483 3.5 3 4.3481 3 5.39453C3 14.2892 10.2108 21.5 19.1055 21.5C20.1519 21.5 21 20.6516 21 19.6052L21.0005 16.854C21.0005 16.0361 20.5027 15.3009 19.7434 14.9971L17.1069 13.9429C16.4249 13.6701 15.6483 13.7929 15.0839 14.2632L14.4035 14.8307C13.6089 15.4929 12.4396 15.4402 11.7082 14.7088L9.79222 12.7911C9.06079 12.0596 9.00673 10.8913 9.66895 10.0967L10.2363 9.4163C10.7066 8.85195 10.8305 8.07516 10.5577 7.39309L9.50246 4.75722Z" fill="#657B90" stroke="#657B90" stroke-width="2" stroke-linecap="round" stroke-linejoin="round"/>
</svg>
