<svg width="24" height="24" viewBox="0 0 24 24" fill="none" xmlns="http://www.w3.org/2000/svg">
<path d="M13.2735 5.07005L5.07103 13.2725C4.279 14.0645 3.88298 14.4609 3.73461 14.9176C3.60409 15.3193 3.60409 15.7519 3.73461 16.1536C3.8829 16.6099 4.27855 17.0056 5.06968 17.7967L6.2024 18.9295C6.99443 19.7215 7.39138 20.1179 7.84804 20.2663C8.24973 20.3968 8.68155 20.3966 9.08324 20.2661C9.5399 20.1177 9.93623 19.7218 10.7283 18.9297L18.9307 10.7273C19.7227 9.93525 20.1187 9.53892 20.267 9.08226C20.3975 8.68058 20.3978 8.24875 20.2673 7.84706C20.1189 7.39041 19.7225 6.99345 18.9304 6.20143L17.7977 5.06871C17.0066 4.27757 16.6109 3.88192 16.1545 3.73363C15.7528 3.60311 15.3203 3.60311 14.9186 3.73363C14.4619 3.88201 14.0655 4.27802 13.2735 5.07005Z" fill="#657B90"/>
<path d="M6.34447 12.0002L8.46579 14.1216M9.17259 9.17162L11.2939 11.2929M12.0007 6.34349L14.122 8.46481M5.07103 13.2725L13.2735 5.07005C14.0655 4.27802 14.4619 3.88201 14.9186 3.73363C15.3203 3.60311 15.7528 3.60311 16.1545 3.73363C16.6109 3.88192 17.0066 4.27757 17.7977 5.06871L18.9304 6.20143C19.7225 6.99345 20.1189 7.39041 20.2673 7.84706C20.3978 8.24875 20.3975 8.68058 20.267 9.08226C20.1187 9.53892 19.7227 9.93525 18.9307 10.7273L10.7283 18.9297C9.93623 19.7218 9.5399 20.1177 9.08324 20.2661C8.68155 20.3966 8.24973 20.3968 7.84804 20.2663C7.39138 20.1179 6.99443 19.7215 6.2024 18.9295L5.06968 17.7967C4.27855 17.0056 3.8829 16.6099 3.73461 16.1536C3.60409 15.7519 3.60409 15.3193 3.73461 14.9176C3.88298 14.4609 4.279 14.0645 5.07103 13.2725Z" stroke="#657B90" stroke-width="2" stroke-linecap="round" stroke-linejoin="round"/>
<path d="M5.67285 11.3286L8.4658 14.1216M8.50098 8.5L11.2939 11.293M11.3291 5.67188L14.1221 8.46483" stroke="white" stroke-width="2" stroke-linecap="round" stroke-linejoin="round"/>
</svg>
