<svg width="24" height="25" viewBox="0 0 24 25" fill="none" xmlns="http://www.w3.org/2000/svg">
<path d="M9 6.5L12 3.5M12 3.5L15 6.5M12 3.5V13.5M7.00023 10.5C6.06835 10.5 5.60241 10.5 5.23486 10.6522C4.74481 10.8552 4.35523 11.2448 4.15224 11.7349C4 12.1024 4 12.5681 4 13.5V18.3C4 19.4201 4 19.9798 4.21799 20.4076C4.40973 20.7839 4.71547 21.0905 5.0918 21.2822C5.5192 21.5 6.07899 21.5 7.19691 21.5H16.8036C17.9215 21.5 18.4805 21.5 18.9079 21.2822C19.2842 21.0905 19.5905 20.7839 19.7822 20.4076C20 19.9802 20 19.421 20 18.3031V13.5C20 12.5681 19.9999 12.1024 19.8477 11.7349C19.6447 11.2448 19.2554 10.8552 18.7654 10.6522C18.3978 10.5 17.9319 10.5 17 10.5" stroke="#657B90" stroke-width="2" stroke-linecap="round" stroke-linejoin="round"/>
</svg>
