<svg width="24" height="24" viewBox="0 0 24 24" fill="none" xmlns="http://www.w3.org/2000/svg">
<path d="M12.9258 20.6314C15.0319 19.6781 20 16.7333 20 10.165V6.19691C20 5.07899 20 4.5192 19.7822 4.0918C19.5905 3.71547 19.2837 3.40973 18.9074 3.21799C18.4796 3 17.9203 3 16.8002 3H7.2002C6.08009 3 5.51962 3 5.0918 3.21799C4.71547 3.40973 4.40973 3.71547 4.21799 4.0918C4 4.51962 4 5.08009 4 6.2002V10.165C4 16.7333 8.9678 19.6781 11.074 20.6314C11.2972 20.7325 11.4094 20.7829 11.6621 20.8263C11.8215 20.8537 12.1795 20.8537 12.3389 20.8263C12.5906 20.7831 12.7016 20.7328 12.9231 20.6325L12.9258 20.6314Z" fill="#657B90"/>
<path d="M15 9L11 13L9 11M20 10.165C20 16.7333 15.0319 19.6781 12.9258 20.6314L12.9231 20.6325C12.7016 20.7328 12.5906 20.7831 12.3389 20.8263C12.1795 20.8537 11.8215 20.8537 11.6621 20.8263C11.4094 20.7829 11.2972 20.7325 11.074 20.6314C8.9678 19.6781 4 16.7333 4 10.165V6.2002C4 5.08009 4 4.51962 4.21799 4.0918C4.40973 3.71547 4.71547 3.40973 5.0918 3.21799C5.51962 3 6.08009 3 7.2002 3H16.8002C17.9203 3 18.4796 3 18.9074 3.21799C19.2837 3.40973 19.5905 3.71547 19.7822 4.0918C20 4.5192 20 5.07899 20 6.19691V10.165Z" stroke="#657B90" stroke-width="2" stroke-linecap="round" stroke-linejoin="round"/>
<path d="M15 9L11 13L9 11" stroke="white" stroke-width="2" stroke-linecap="round" stroke-linejoin="round"/>
</svg>
