<svg width="24" height="24" viewBox="0 0 24 24" fill="none" xmlns="http://www.w3.org/2000/svg">
<path d="M8 8H6.77734C5.47772 8 4.82845 8 4.36621 8.26514C3.96058 8.49781 3.64877 8.86535 3.48595 9.30371C3.30053 9.80294 3.40726 10.4433 3.62065 11.7237L3.62109 11.7261L4.55443 17.3261C4.71276 18.276 4.79244 18.7512 5.02947 19.1077C5.23841 19.4219 5.5317 19.6703 5.87598 19.8247C6.26653 19.9999 6.74787 20 7.71094 20H16.2893C17.2524 20 17.7334 19.9999 18.124 19.8247C18.4682 19.6703 18.7618 19.4219 18.9707 19.1077C19.2077 18.7512 19.287 18.276 19.4453 17.3261L20.3786 11.7261L20.3796 11.7222C20.5928 10.4428 20.6995 9.80274 20.5141 9.30371C20.3513 8.86535 20.0402 8.49781 19.6346 8.26514C19.1724 8 18.522 8 17.2224 8H16M8 8H16M8 8C8 5.79086 9.79086 4 12 4C14.2091 4 16 5.79086 16 8" stroke="#657B90" stroke-width="2" stroke-linecap="round" stroke-linejoin="round"/>
<path d="M3.62135 11.7262L4.55469 17.3262C4.71301 18.2761 4.79227 18.751 5.0293 19.1074C5.23824 19.4216 5.53176 19.6704 5.87603 19.8248C6.26659 20 6.7476 20 7.71068 20H8H16H16.2891C17.2521 20 17.7335 20 18.124 19.8248C18.4683 19.6704 18.7616 19.4216 18.9705 19.1074C19.2076 18.751 19.2872 18.2761 19.4456 17.3262L20.3789 11.7262L20.3793 11.7241C20.5927 10.4435 20.6995 9.80281 20.514 9.30353C20.3512 8.86517 20.0394 8.49781 19.6338 8.26514C19.1716 8 18.5222 8 17.2227 8H6.7776C5.47802 8 4.82764 8 4.36541 8.26514C3.95978 8.49781 3.64871 8.86517 3.48589 9.30353C3.30052 9.80262 3.40724 10.443 3.62052 11.7226L3.62135 11.7262Z" fill="#657B90" stroke="#657B90" stroke-width="2" stroke-linecap="round" stroke-linejoin="round"/>
</svg>
