<svg width="24" height="24" viewBox="0 0 24 24" fill="none" xmlns="http://www.w3.org/2000/svg">
<path d="M3 16.8002V11.2002M3 16.8002C3 17.9203 3 18.4801 3.21799 18.9079C3.40973 19.2842 3.71547 19.5905 4.0918 19.7822C4.5192 20 5.07899 20 6.19691 20M3 16.8002V14M3 11.2002C3 10.0801 3 9.51962 3.21799 9.0918C3.40973 8.71547 3.71547 8.40973 4.0918 8.21799C4.51962 8 5.08009 8 6.2002 8M3 11.2002V14M6.2002 8H8M6.2002 8H9.5H12M8 8H16M8 8C8 5.79086 9.79086 4 12 4C14.2091 4 16 5.79086 16 8M16 8H17.8002M17.8002 8C18.9203 8 19.4796 8 19.9074 8.21799C20.2837 8.40973 20.5905 8.71547 20.7822 9.0918C21 9.5192 21 10.079 21 11.1969M17.8002 8H14.5H12M6.19691 20H17.8031M6.19691 20H12M21 16.8036C21 17.9215 21 18.4805 20.7822 18.9079C20.5905 19.2842 20.2837 19.5905 19.9074 19.7822C19.48 20 18.921 20 17.8031 20M21 16.8036V11.1969M21 16.8036V14M17.8031 20H12M21 11.1969V14M12 8V14M3 14H12M12 14V20M12 14H21" stroke="#657B90" stroke-width="2" stroke-linecap="round" stroke-linejoin="round"/>
<path d="M12 8H14.5H17.8002C18.9203 8 19.4796 8 19.9074 8.21799C20.2837 8.40973 20.5905 8.71547 20.7822 9.0918C21 9.5192 21 10.079 21 11.1969V14V16.8036C21 17.9215 21 18.4805 20.7822 18.9079C20.5905 19.2842 20.2837 19.5905 19.9074 19.7822C19.48 20 18.921 20 17.8031 20H12H6.19691C5.07899 20 4.5192 20 4.0918 19.7822C3.71547 19.5905 3.40973 19.2842 3.21799 18.9079C3 18.4801 3 17.9203 3 16.8002V14V11.2002C3 10.0801 3 9.51962 3.21799 9.0918C3.40973 8.71547 3.71547 8.40973 4.0918 8.21799C4.51962 8 5.08009 8 6.2002 8H9.5H12Z" fill="#657B90"/>
<path d="M12 8H14.5H17.8002C18.9203 8 19.4796 8 19.9074 8.21799C20.2837 8.40973 20.5905 8.71547 20.7822 9.0918C21 9.5192 21 10.079 21 11.1969V14M12 8H9.5H6.2002C5.08009 8 4.51962 8 4.0918 8.21799C3.71547 8.40973 3.40973 8.71547 3.21799 9.0918C3 9.51962 3 10.0801 3 11.2002V14M12 8V14M3 14V16.8002C3 17.9203 3 18.4801 3.21799 18.9079C3.40973 19.2842 3.71547 19.5905 4.0918 19.7822C4.5192 20 5.07899 20 6.19691 20H12M3 14H12M12 14V20M12 14H21M12 20H17.8031C18.921 20 19.48 20 19.9074 19.7822C20.2837 19.5905 20.5905 19.2842 20.7822 18.9079C21 18.4805 21 17.9215 21 16.8036V14" stroke="#657B90" stroke-width="2" stroke-linecap="round" stroke-linejoin="round"/>
</svg>
