<svg width="24" height="24" viewBox="0 0 24 24" fill="none" xmlns="http://www.w3.org/2000/svg">
<path d="M4 13C4 17.4183 7.58172 21 12 21C16.4183 21 20 17.4183 20 13C20 8.58172 16.4183 5 12 5C7.58172 5 4 8.58172 4 13Z" fill="#657B90"/>
<path d="M9 13H15M21 6L19 4M10 2H14M12 21C7.58172 21 4 17.4183 4 13C4 8.58172 7.58172 5 12 5C16.4183 5 20 8.58172 20 13C20 17.4183 16.4183 21 12 21Z" stroke="#657B90" stroke-width="2" stroke-linecap="round" stroke-linejoin="round"/>
<path d="M9 13H15" stroke="white" stroke-width="2" stroke-linecap="round" stroke-linejoin="round"/>
</svg>
