<svg width="24" height="24" viewBox="0 0 24 24" fill="none" xmlns="http://www.w3.org/2000/svg">
<path d="M3 14.8002V9.2002C3 8.08009 3 7.51962 3.21799 7.0918C3.40973 6.71547 3.71547 6.40973 4.0918 6.21799C4.51962 6 5.08009 6 6.2002 6H17.8002C18.9203 6 19.4796 6 19.9074 6.21799C20.2837 6.40973 20.5905 6.71547 20.7822 7.0918C21 7.5192 21 8.07899 21 9.19691V14.8031C21 15.921 21 16.48 20.7822 16.9074C20.5905 17.2837 20.2837 17.5905 19.9074 17.7822C19.48 18 18.921 18 17.8031 18H12H6.19691C6.12926 18 6.06366 18 6 18C5.01173 17.9992 4.49334 17.9868 4.0918 17.7822C3.71547 17.5905 3.40973 17.2837 3.21799 16.9074C3 16.4796 3 15.9203 3 14.8002Z" fill="#657B90"/>
<path d="M6 18C6.06366 18 6.12926 18 6.19691 18H12M6 18C5.01173 17.9992 4.49334 17.9868 4.0918 17.7822C3.71547 17.5905 3.40973 17.2837 3.21799 16.9074C3 16.4796 3 15.9203 3 14.8002V9.2002C3 8.08009 3 7.51962 3.21799 7.0918C3.40973 6.71547 3.71547 6.40973 4.0918 6.21799C4.51962 6 5.08009 6 6.2002 6H17.8002C18.9203 6 19.4796 6 19.9074 6.21799C20.2837 6.40973 20.5905 6.71547 20.7822 7.0918C21 7.5192 21 8.07899 21 9.19691V14.8031C21 15.921 21 16.48 20.7822 16.9074C20.5905 17.2837 20.2837 17.5905 19.9074 17.7822C19.48 18 18.921 18 17.8031 18H12M6 18C6.00004 16.8954 7.34317 16 9 16C10.6569 16 12 16.8954 12 18M6 18C6 18 6 17.9999 6 18ZM18 14H14M18 11H15M9 13C7.89543 13 7 12.1046 7 11C7 9.89543 7.89543 9 9 9C10.1046 9 11 9.89543 11 11C11 12.1046 10.1046 13 9 13Z" stroke="#657B90" stroke-width="2" stroke-linecap="round" stroke-linejoin="round"/>
<path d="M5 17.9999L4.99996 18.9999L6.99996 19L7 18L5 17.9999ZM11 18V19H13V18H11ZM18 15C18.5523 15 19 14.5523 19 14C19 13.4477 18.5523 13 18 13V15ZM14 13C13.4477 13 13 13.4477 13 14C13 14.5523 13.4477 15 14 15V13ZM18 12C18.5523 12 19 11.5523 19 11C19 10.4477 18.5523 10 18 10V12ZM15 10C14.4477 10 14 10.4477 14 11C14 11.5523 14.4477 12 15 12V10ZM9 12C8.44772 12 8 11.5523 8 11H6C6 12.6569 7.34315 14 9 14V12ZM8 11C8 10.4477 8.44772 10 9 10V8C7.34315 8 6 9.34315 6 11H8ZM9 10C9.55228 10 10 10.4477 10 11H12C12 9.34315 10.6569 8 9 8V10ZM10 11C10 11.5523 9.55228 12 9 12V14C10.6569 14 12 12.6569 12 11H10ZM13 18C13 17.0093 12.3977 16.2349 11.676 15.7537C10.9474 15.268 9.99832 15 9 15V17C9.65854 17 10.2095 17.1798 10.5666 17.4178C10.9307 17.6606 11 17.8861 11 18H13ZM9 15C8.0017 15 7.05267 15.268 6.32401 15.7537C5.60234 16.2348 5.00004 17.0093 5 17.9999L7 18C7 17.8861 7.06928 17.6606 7.43339 17.4178C7.79052 17.1798 8.34147 17 9 17V15ZM18 13H14V15H18V13ZM18 10H15V12H18V10Z" fill="white"/>
<path d="M12 19C12 19 12 19 12 19ZM12 19C12 17.8955 10.6568 17 9 17C7.34317 17 6.00004 17.8954 6 19L12 19Z" stroke="white" stroke-width="2" stroke-linecap="round" stroke-linejoin="round"/>
<path d="M7 11C7 12.1046 7.89543 13 9 13C10.1046 13 11 12.1046 11 11C11 9.89543 10.1046 9 9 9C7.89543 9 7 9.89543 7 11Z" fill="white" stroke="white" stroke-width="2" stroke-linecap="round" stroke-linejoin="round"/>
</svg>
