<svg width="24" height="24" viewBox="0 0 24 24" fill="none" xmlns="http://www.w3.org/2000/svg">
<path d="M3 12C3 16.9706 7.02944 21 12 21C16.9706 21 21 16.9706 21 12C21 7.02944 16.9706 3 12 3C7.02944 3 3 7.02944 3 12Z" fill="#657B90"/>
<path d="M17.2166 19.3323C15.9349 17.9008 14.0727 17 12 17C9.92734 17 8.06492 17.9008 6.7832 19.3323M12 21C7.02944 21 3 16.9706 3 12C3 7.02944 7.02944 3 12 3C16.9706 3 21 7.02944 21 12C21 16.9706 16.9706 21 12 21ZM12 14C10.3431 14 9 12.6569 9 11C9 9.34315 10.3431 8 12 8C13.6569 8 15 9.34315 15 11C15 12.6569 13.6569 14 12 14Z" stroke="#657B90" stroke-width="2" stroke-linecap="round" stroke-linejoin="round"/>
<path d="M17.5 19.5C16.2183 18.0685 14.0395 17 11.9668 17C9.89414 17 7.78172 18.0685 6.5 19.5M11.9668 14C10.3099 14 8.9668 12.6569 8.9668 11C8.9668 9.34315 10.3099 8 11.9668 8C13.6237 8 14.9668 9.34315 14.9668 11C14.9668 12.6569 13.6237 14 11.9668 14Z" stroke="white" stroke-width="2" stroke-linecap="square" stroke-linejoin="round"/>
<path d="M9 11C9 12.6569 10.3431 14 12 14C13.6569 14 15 12.6569 15 11C15 9.34315 13.6569 8 12 8C10.3431 8 9 9.34315 9 11Z" fill="white" stroke="white" stroke-width="2" stroke-linecap="round" stroke-linejoin="round"/>
<path d="M12.4668 18C14.5395 18 16.2183 18.0685 17.5 19.5C12.7 22.7 8.16667 20.8333 6.5 19.5C7.78172 18.0685 10.3941 18 12.4668 18Z" fill="white" stroke="white" stroke-width="2" stroke-linecap="round" stroke-linejoin="round"/>
</svg>
