<svg width="24" height="24" viewBox="0 0 24 24" fill="none" xmlns="http://www.w3.org/2000/svg">
<path d="M3 17.8002V6.2002C3 5.08009 3 4.51962 3.21799 4.0918C3.40973 3.71547 3.71547 3.40973 4.0918 3.21799C4.51962 3 5.08009 3 6.2002 3H17.8002C18.9203 3 19.4796 3 19.9074 3.21799C20.2837 3.40973 20.5905 3.71547 20.7822 4.0918C21 4.5192 21 5.07899 21 6.19691V17.8031C21 18.921 21 19.48 20.7822 19.9074C20.5905 20.2837 20.2837 20.5905 19.9074 20.7822C19.48 21 18.921 21 17.8031 21H17H7H6.19691C5.07899 21 4.5192 21 4.0918 20.7822C3.71547 20.5905 3.40973 20.2837 3.21799 19.9074C3 19.4796 3 18.9203 3 17.8002Z" fill="#657B90"/>
<path d="M17 21C17 18.2386 14.7614 16 12 16C9.23858 16 7 18.2386 7 21M17 21H17.8031C18.921 21 19.48 21 19.9074 20.7822C20.2837 20.5905 20.5905 20.2837 20.7822 19.9074C21 19.48 21 18.921 21 17.8031V6.19691C21 5.07899 21 4.5192 20.7822 4.0918C20.5905 3.71547 20.2837 3.40973 19.9074 3.21799C19.4796 3 18.9203 3 17.8002 3H6.2002C5.08009 3 4.51962 3 4.0918 3.21799C3.71547 3.40973 3.40973 3.71547 3.21799 4.0918C3 4.51962 3 5.08009 3 6.2002V17.8002C3 18.9203 3 19.4796 3.21799 19.9074C3.40973 20.2837 3.71547 20.5905 4.0918 20.7822C4.5192 21 5.07899 21 6.19691 21H7M17 21H7M12 13C10.3431 13 9 11.6569 9 10C9 8.34315 10.3431 7 12 7C13.6569 7 15 8.34315 15 10C15 11.6569 13.6569 13 12 13Z" stroke="#657B90" stroke-width="2" stroke-linecap="round" stroke-linejoin="round"/>
<path d="M9 10C9 11.6569 10.3431 13 12 13C13.6569 13 15 11.6569 15 10C15 8.34315 13.6569 7 12 7C10.3431 7 9 8.34315 9 10Z" stroke="white" stroke-width="2" stroke-linecap="round" stroke-linejoin="round"/>
<path d="M12 16C14.7614 16 17 18.2386 17 21H7C7 18.2386 9.23858 16 12 16Z" stroke="white" stroke-width="2" stroke-linecap="round" stroke-linejoin="round"/>
<path d="M12 17C14.7614 17 17 18.7909 17 21H7C7 18.7909 9.23858 17 12 17Z" fill="white" stroke="white" stroke-width="2" stroke-linecap="round" stroke-linejoin="round"/>
<path d="M9 10C9 11.6569 10.3431 13 12 13C13.6569 13 15 11.6569 15 10C15 8.34315 13.6569 7 12 7C10.3431 7 9 8.34315 9 10Z" fill="white" stroke="white" stroke-width="2" stroke-linecap="round" stroke-linejoin="round"/>
</svg>
