<svg width="24" height="24" viewBox="0 0 24 24" fill="none" xmlns="http://www.w3.org/2000/svg">
<path d="M12 2C12 2 19 7.11538 19 13.6923C19 15.6304 18.2625 17.4889 16.9497 18.8594C15.637 20.2298 13.8566 20.9994 12.0001 20.9994C10.1436 20.9994 8.36301 20.2302 7.05025 18.8598C5.7375 17.4893 5 15.6304 5 13.6923C5 7.11538 12 2 12 2Z" fill="#657B90"/>
<path d="M16.0001 13.3848C16.0001 14.6088 15.526 15.7828 14.6821 16.6483C14.203 17.1397 13.6269 17.5091 13 17.7364M19 13.6923C19 7.11538 12 2 12 2C12 2 5 7.11538 5 13.6923C5 15.6304 5.7375 17.4893 7.05025 18.8598C8.36301 20.2302 10.1436 20.9994 12.0001 20.9994C13.8566 20.9994 15.637 20.2298 16.9497 18.8594C18.2625 17.4889 19 15.6304 19 13.6923Z" stroke="#657B90" stroke-width="2" stroke-linecap="round" stroke-linejoin="round"/>
<path d="M16.0001 13.3848C16.0001 14.6088 15.526 15.7828 14.6821 16.6483C14.203 17.1397 13.6269 17.5091 13 17.7364" stroke="white" stroke-width="2" stroke-linecap="round" stroke-linejoin="round"/>
</svg>
