<svg width="64" height="64" viewBox="0 0 64 64" fill="none" xmlns="http://www.w3.org/2000/svg">
<path fill-rule="evenodd" clip-rule="evenodd" d="M41.3047 21.3295C44.6695 21.3295 47.5768 23.2545 48.983 26.0616C52.013 26.5387 54.3288 29.1349 54.3288 32.2803C54.3288 35.5256 51.8679 38.194 48.6984 38.5435C47.2085 41.0621 44.4575 42.7485 41.3047 42.7485C40.7634 42.7485 40.2277 42.6931 39.7143 42.5987C37.8004 44.4516 35.1833 45.5944 32.2983 45.5944C29.3631 45.5944 26.707 44.4183 24.7818 42.51C24.1345 42.6653 23.4538 42.7485 22.7562 42.7485C19.6034 42.7485 16.8524 41.0621 15.3625 38.5491C12.1763 38.2217 9.6875 35.5423 9.6875 32.2803C9.6875 29.1183 12.0256 26.5109 15.0779 26.056C16.4841 23.2545 19.3914 21.3295 22.7562 21.3295C23.4705 21.3295 24.1624 21.4183 24.8265 21.5792C26.7461 19.6986 29.3855 18.5336 32.2983 18.5336C35.1609 18.5336 37.7557 19.6597 39.6697 21.4849C40.1998 21.385 40.7467 21.3295 41.3047 21.3295ZM31.3497 34.3718C30.4011 34.3718 29.6812 33.6783 29.6812 32.7352C29.6812 31.7977 30.3955 31.0932 31.3441 31.0932C32.2927 31.0932 33.0126 31.7922 33.0126 32.7352C33.0126 33.6783 32.2983 34.3718 31.3497 34.3718ZM31.3497 33.5285C31.7738 33.5285 32.0807 33.1957 32.0807 32.7352C32.0807 32.2748 31.7682 31.9419 31.3497 31.9419C30.9256 31.9419 30.6187 32.2748 30.6187 32.7352C30.6187 33.1957 30.9256 33.5285 31.3497 33.5285ZM29.0562 31.1265C28.7996 31.1265 28.4815 31.2541 28.2918 31.5148C28.2583 31.304 28.0965 31.1376 27.8453 31.1376C27.5942 31.1376 27.3878 31.3095 27.3878 31.6257V33.8503C27.3878 34.1665 27.5942 34.3385 27.8453 34.3385C28.0965 34.3385 28.3029 34.1665 28.3029 33.8503V32.9904C28.3029 32.3247 28.6712 32.003 29.073 32.003C29.1163 32.003 29.1492 32.0059 29.1809 32.0088C29.2104 32.0115 29.2389 32.0141 29.2739 32.0141C29.4915 32.0141 29.6701 31.8421 29.6701 31.5925C29.6701 31.3428 29.5027 31.1875 29.3073 31.1431C29.2404 31.132 29.1455 31.1265 29.0562 31.1265ZM43.9888 31.0932C45.0099 31.0932 45.4898 31.8698 45.4898 32.469C45.4898 32.7519 45.3615 32.9682 44.982 32.9682H43.3694C43.4196 33.2955 43.6707 33.5452 44.078 33.5452C44.3236 33.5452 44.5077 33.462 44.6416 33.351C44.876 33.1624 45.1271 33.2345 45.2834 33.4398C45.4173 33.6284 45.4005 33.8669 45.1494 34.0611C44.8872 34.2608 44.5858 34.3773 44.1004 34.3773C43.1517 34.3773 42.4375 33.7449 42.4375 32.7574C42.4375 31.8088 43.0736 31.0932 43.9888 31.0932ZM44.0055 31.892C43.6651 31.892 43.4642 32.1028 43.4084 32.358H44.5412C44.5189 32.0973 44.3068 31.892 44.0055 31.892ZM41.5502 34.3385C41.8013 34.3385 42.0078 34.1665 42.0078 33.8503V32.4801C42.0078 31.5925 41.5335 31.0932 40.6909 31.0932C40.3058 31.0932 39.9655 31.2541 39.7422 31.4704C39.5302 31.2263 39.2233 31.0932 38.8662 31.0932C38.5425 31.0932 38.2523 31.2263 38.0849 31.4205C38.0124 31.2374 37.845 31.1376 37.6608 31.1376C37.4097 31.1376 37.2033 31.3095 37.2033 31.6257V33.8503C37.2033 34.1665 37.4097 34.3385 37.6608 34.3385C37.912 34.3385 38.1184 34.1665 38.1184 33.8503V32.6964C38.1184 32.2193 38.3026 31.9364 38.6653 31.9364C38.9945 31.9364 39.1508 32.1805 39.1508 32.5189V33.8503C39.1508 34.1665 39.3572 34.3385 39.6083 34.3385C39.8594 34.3385 40.0659 34.1665 40.0659 33.8503V32.6354C40.0659 32.2027 40.2668 31.9364 40.6128 31.9364C40.942 31.9364 41.0926 32.1805 41.0926 32.5189V33.8503C41.0926 34.1665 41.2991 34.3385 41.5502 34.3385ZM35.0382 34.3718C34.0895 34.3718 33.3697 33.6783 33.3697 32.7352C33.3697 31.7977 34.0895 31.0932 35.0382 31.0932C35.9868 31.0932 36.7066 31.7977 36.7066 32.7352C36.7066 33.6728 35.9868 34.3718 35.0382 34.3718ZM35.0438 33.5285C35.4678 33.5285 35.7748 33.1957 35.7748 32.7352C35.7748 32.2748 35.4678 31.9419 35.0438 31.9419C34.6197 31.9419 34.3127 32.2748 34.3127 32.7352C34.3127 33.1957 34.6197 33.5285 35.0438 33.5285ZM19.8601 32.7352C19.8601 33.6783 20.58 34.3718 21.5286 34.3718C22.4772 34.3718 23.1915 33.6783 23.1915 32.7352C23.1915 31.7922 22.4716 31.0932 21.523 31.0932C20.5744 31.0932 19.8601 31.7977 19.8601 32.7352ZM22.2596 32.7352C22.2596 33.1957 21.9527 33.5285 21.5286 33.5285C21.1045 33.5285 20.7976 33.1957 20.7976 32.7352C20.7976 32.2748 21.1045 31.9419 21.5286 31.9419C21.9527 31.9419 22.2596 32.2748 22.2596 32.7352ZM47.415 31.0932C48.4361 31.0932 48.916 31.8698 48.916 32.469C48.916 32.7519 48.7877 32.9682 48.4082 32.9682H46.7956C46.8458 33.2955 47.0969 33.5452 47.5043 33.5452C47.7498 33.5452 47.9339 33.462 48.0679 33.351C48.3022 33.1624 48.5533 33.2345 48.7096 33.4398C48.8435 33.6284 48.8268 33.8669 48.5757 34.0611C48.3134 34.2608 48.0121 34.3773 47.5266 34.3773C46.5779 34.3773 45.8637 33.7449 45.8637 32.7574C45.8637 31.8088 46.4998 31.0932 47.415 31.0932ZM47.4373 31.892C47.0969 31.892 46.896 32.1028 46.8402 32.358H47.973C47.9507 32.0973 47.7386 31.892 47.4373 31.892ZM17.416 30.6383C17.8513 30.6383 18.147 30.7936 18.3702 30.9822C18.6102 31.193 18.8836 31.1487 19.051 30.9545C19.2184 30.7603 19.224 30.494 18.9785 30.2832C18.56 29.9337 18.0466 29.7451 17.4607 29.7451C16.1437 29.7451 15.1003 30.6383 15.1003 32.0695C15.1003 33.4398 16.1437 34.3718 17.4551 34.3718C18.1414 34.3718 18.7218 34.1166 19.1291 33.7837C19.2575 33.6839 19.33 33.5174 19.33 33.2955V32.4135C19.33 32.0307 19.1068 31.8033 18.7162 31.8033H17.829C17.5332 31.8033 17.3658 32.003 17.3658 32.236C17.3658 32.469 17.5332 32.6631 17.829 32.6631H18.387V33.2068C18.1303 33.3899 17.8066 33.4731 17.4662 33.4731C16.7129 33.4731 16.0824 32.9239 16.0824 32.0418C16.0824 31.132 16.7631 30.6383 17.416 30.6383ZM25.2227 34.3718C24.274 34.3718 23.5542 33.6783 23.5542 32.7352C23.5542 31.7977 24.274 31.0932 25.2227 31.0932C26.1713 31.0932 26.8911 31.7977 26.8911 32.7352C26.8911 33.6728 26.1713 34.3718 25.2227 34.3718ZM25.2227 33.5285C25.6468 33.5285 25.9537 33.1957 25.9537 32.7352C25.9537 32.2748 25.6468 31.9419 25.2227 31.9419C24.7986 31.9419 24.4917 32.2748 24.4917 32.7352C24.4917 33.1957 24.7986 33.5285 25.2227 33.5285Z" fill="url(#paint0_linear_1514_305)"/>
<defs>
<linearGradient id="paint0_linear_1514_305" x1="9.6875" y1="18.5336" x2="33.6792" y2="58.1118" gradientUnits="userSpaceOnUse">
<stop stop-color="#00388B"/>
<stop offset="1" stop-color="#0075FF"/>
<stop offset="1" stop-color="#0061D3"/>
</linearGradient>
</defs>
</svg>
